<?xml version="1.0" encoding="UTF-8"?>
<svg id="Layer_1" xmlns="http://www.w3.org/2000/svg" xmlns:xlink="http://www.w3.org/1999/xlink" version="1.1" viewBox="0 0 147 55">
  <!-- Generator: Adobe Illustrator 30.1.0, SVG Export Plug-In . SVG Version: 2.1.1 Build 109)  -->
  <defs>
    <style>
      .st0 {
        fill: url(#linear-gradient2);
      }

      .st1 {
        fill: url(#linear-gradient1);
      }

      .st2 {
        fill: url(#linear-gradient3);
      }

      .st3 {
        fill: url(#linear-gradient6);
      }

      .st4 {
        fill: url(#linear-gradient5);
      }

      .st5 {
        fill: url(#linear-gradient4);
      }

      .st6 {
        fill: #5b5b5b;
      }

      .st7 {
        fill: url(#linear-gradient);
      }

      .st8 {
        fill: #ddd;
      }
    </style>
    <linearGradient id="linear-gradient" x1="37.88" y1="41.4" x2="40.07" y2="41.4" gradientTransform="translate(0 57) scale(1 -1)" gradientUnits="userSpaceOnUse">
      <stop offset="0" stop-color="#117399"/>
      <stop offset=".36" stop-color="#0d6b93"/>
      <stop offset=".89" stop-color="#025883"/>
      <stop offset="1" stop-color="#00537f"/>
    </linearGradient>
    <linearGradient id="linear-gradient1" x1="30.02" y1="43.38" x2="45.13" y2="40.52" gradientTransform="translate(0 57) scale(1 -1)" gradientUnits="userSpaceOnUse">
      <stop offset="0" stop-color="#2db513"/>
      <stop offset=".29" stop-color="#25ad17"/>
      <stop offset=".7" stop-color="#129a24"/>
      <stop offset="1" stop-color="#008831"/>
    </linearGradient>
    <linearGradient id="linear-gradient2" x1="10.97" y1="50.97" x2="27.69" y2="46.4" gradientTransform="translate(0 57) scale(1 -1)" gradientUnits="userSpaceOnUse">
      <stop offset="0" stop-color="#ff6921"/>
      <stop offset=".2" stop-color="#f8611d"/>
      <stop offset=".5" stop-color="#e64e15"/>
      <stop offset=".85" stop-color="#c92d06"/>
      <stop offset="1" stop-color="#bb1e00"/>
    </linearGradient>
    <linearGradient id="linear-gradient3" x1="1.78" y1="44.32" x2="30.71" y2="37.96" gradientTransform="translate(0 57) scale(1 -1)" gradientUnits="userSpaceOnUse">
      <stop offset="0" stop-color="#117399"/>
      <stop offset=".36" stop-color="#0d6b93"/>
      <stop offset=".89" stop-color="#025883"/>
      <stop offset="1" stop-color="#00537f"/>
    </linearGradient>
    <linearGradient id="linear-gradient4" x1="18.19" y1="17.37" x2="22.01" y2="17.37" gradientTransform="translate(0 57) scale(1 -1)" gradientUnits="userSpaceOnUse">
      <stop offset="0" stop-color="#ff6921"/>
      <stop offset=".2" stop-color="#f8611d"/>
      <stop offset=".5" stop-color="#e64e15"/>
      <stop offset=".85" stop-color="#c92d06"/>
      <stop offset="1" stop-color="#bb1e00"/>
    </linearGradient>
    <linearGradient id="linear-gradient5" x1="24.77" y1="25.76" x2="36.43" y2="25.76" gradientTransform="translate(0 57) scale(1 -1)" gradientUnits="userSpaceOnUse">
      <stop offset="0" stop-color="#117399"/>
      <stop offset=".36" stop-color="#0d6b93"/>
      <stop offset=".89" stop-color="#025883"/>
      <stop offset="1" stop-color="#00537f"/>
    </linearGradient>
    <linearGradient id="linear-gradient6" x1="31.67" y1="38.38" x2="53.32" y2="34.58" gradientTransform="translate(0 57) scale(1 -1)" gradientUnits="userSpaceOnUse">
      <stop offset="0" stop-color="#fff221"/>
      <stop offset="0" stop-color="#ffef22"/>
      <stop offset=".15" stop-color="#ffd52e"/>
      <stop offset=".29" stop-color="#ffc137"/>
      <stop offset=".46" stop-color="#ffb33e"/>
      <stop offset=".67" stop-color="#ffaa42"/>
      <stop offset="1" stop-color="#ffa844"/>
    </linearGradient>
  </defs>
  <circle class="st7" cx="38.98" cy="15.6" r="1.09"/>
  <path class="st1" d="M29.73,16.92s1.67-5.24,7.06-5.27c4.32-.02,6.55,4.86,7.24,5.77.64.84,1.08,1.22,1.08,1.22,0,0-2.29-1.24-3.35-2.92-1.06-1.68-2.75-2.91-5.06-2.91s-4.13.63-6.98,4.12Z"/>
  <path class="st0" d="M27.7,14.98S20.86,3.96,10.37,1.5c0,0,13.38,8.86,17.34,13.48Z"/>
  <path class="st8" d="M23,12.52s-3.01-4.6-11.91-8.36c0,0,1.87,6.94,11.91,8.36Z"/>
  <path class="st2" d="M30.24,21.97s.9-2.46-1.44-4.1S19.99,10.83.79,12.84c0,0,8.86.07,17.24,2.41,8.38,2.34,10.69,5.42,12.21,6.72h0Z"/>
  <path class="st8" d="M25.59,19.76s-7.21-4.9-23.38-5.12c0,0,8.01,5.47,15.32,5.57s8.06-.45,8.06-.45h0Z"/>
  <path class="st8" d="M26.66,21.05s-8.58-1.07-13.16,1.64c0,0,6.04,4.82,13.16-1.64Z"/>
  <path class="st8" d="M28.45,22.24s-4.08.22-6.91,4.5c0,0,5.15,2.51,6.91-4.5Z"/>
  <path class="st5" d="M20.81,28.09s-6.64,11.42,1.19,23.08c0,0-4.65-9.7-1.19-23.08Z"/>
  <path class="st8" d="M21.53,32.22s-3.38,8.8.82,16.14c0,0,4-7.29-.82-16.14Z"/>
  <path class="st4" d="M36.43,26.7s-2.46,6.89-11.66,8.98c0,0,9.15,1.79,11.66-8.98Z"/>
  <g>
    <path d="M43.62,34.08c-1.24,0-2.37-.28-3.39-.84-1.02-.56-1.83-1.38-2.44-2.46-.61-1.08-.91-2.4-.91-3.98s.3-2.86.89-3.94,1.4-1.91,2.44-2.48,2.21-.85,3.53-.85c.93,0,1.69.07,2.29.22.6.15,1.15.35,1.66.61l-.49,1.62c-.55-.25-1.06-.44-1.52-.56-.46-.12-1.02-.18-1.67-.18-.87,0-1.67.19-2.42.56-.74.37-1.34.97-1.79,1.79-.45.82-.67,1.9-.67,3.25s.22,2.43.65,3.24c.43.81,1.01,1.4,1.72,1.76.71.37,1.49.55,2.35.55.75,0,1.37-.06,1.87-.18.49-.12.97-.29,1.44-.52l.47,1.66c-.52.24-1.1.42-1.73.55s-1.38.19-2.27.19h0Z"/>
    <path d="M54.42,34.08c-.97,0-1.85-.21-2.62-.62-.77-.41-1.38-1.02-1.83-1.82-.45-.8-.67-1.78-.67-2.93s.23-2.19.7-3.01,1.09-1.45,1.88-1.89c.79-.43,1.67-.65,2.64-.65s1.85.2,2.62.61c.77.4,1.38,1,1.83,1.79.45.79.67,1.76.67,2.93s-.23,2.19-.7,3.02-1.09,1.47-1.88,1.91c-.79.44-1.67.66-2.64.66h0ZM54.49,32.56c.52,0,1.02-.12,1.49-.36.47-.24.85-.65,1.15-1.22.29-.58.44-1.37.44-2.37,0-.94-.15-1.7-.45-2.27s-.69-.98-1.17-1.25c-.48-.26-.98-.39-1.5-.39s-1.02.11-1.49.35c-.47.23-.85.63-1.15,1.19-.29.56-.44,1.35-.44,2.37,0,.93.15,1.68.45,2.27.3.59.69,1.01,1.17,1.28s.98.4,1.5.4h0Z"/>
    <path d="M62.13,33.88v-15.95h1.93v15.95h-1.93Z"/>
    <path d="M68.51,20.6c-.34,0-.64-.11-.89-.35-.25-.23-.37-.52-.37-.87s.12-.64.37-.88c.25-.24.54-.36.89-.36s.62.12.88.36c.25.24.38.53.38.88s-.13.63-.38.87c-.25.23-.55.35-.88.35h0ZM67.52,33.88v-10.56h1.98v10.56h-1.98Z"/>
    <path d="M77.68,34.08c-.69,0-1.29-.1-1.81-.29-.52-.2-1-.49-1.45-.9h-.05l-.2.99h-1.42v-15.95h1.95v6.72c.48-.51,1.01-.88,1.6-1.12.59-.24,1.18-.36,1.8-.36,1.33,0,2.4.48,3.19,1.45s1.19,2.3,1.19,3.99c0,1.11-.22,2.07-.65,2.9s-1.02,1.46-1.74,1.91c-.73.45-1.53.67-2.42.67h0ZM77.17,32.56c.57,0,1.1-.14,1.6-.41.49-.28.9-.7,1.2-1.28s.46-1.32.46-2.23c0-1.15-.25-2.08-.75-2.79s-1.19-1.06-2.08-1.06c-.57,0-1.09.13-1.55.38s-.91.61-1.33,1.08v5.12c.32.36.67.65,1.08.87.4.22.86.33,1.37.33h0Z"/>
    <path d="M84.83,33.88v-10.56h1.48l.34,2.11c.25-.66.67-1.2,1.26-1.63s1.26-.64,2.02-.64c.39,0,.72.03.98.09.26.06.49.13.68.22l-.38,1.73c-.18-.09-.38-.17-.6-.22-.22-.06-.48-.09-.78-.09-.85,0-1.58.3-2.17.9s-.89,1.48-.89,2.63v5.46h-1.96Z"/>
    <path d="M94.42,20.6c-.34,0-.64-.11-.89-.35s-.37-.52-.37-.87.12-.64.37-.88c.25-.24.54-.36.89-.36s.62.12.88.36c.25.24.38.53.38.88s-.13.63-.38.87c-.25.23-.55.35-.88.35ZM93.43,33.88v-10.56h1.98v10.56h-1.98Z"/>
  </g>
  <g>
    <path class="st6" d="M106.52,34.33c-1.24,0-2.37-.28-3.39-.84-1.02-.56-1.83-1.38-2.44-2.46s-.91-2.4-.91-3.98.3-2.86.89-3.94c.59-1.09,1.4-1.91,2.44-2.48s2.21-.85,3.53-.85c.93,0,1.69.07,2.29.22.6.15,1.15.35,1.66.61l-.49,1.62c-.55-.25-1.06-.44-1.52-.56-.46-.12-1.02-.18-1.67-.18-.87,0-1.67.19-2.42.56-.74.37-1.34.97-1.79,1.79-.45.82-.67,1.9-.67,3.25s.22,2.43.65,3.24c.43.81,1.01,1.4,1.72,1.76.71.37,1.49.55,2.35.55.75,0,1.37-.06,1.87-.18s.97-.29,1.44-.52l.47,1.66c-.52.24-1.1.42-1.73.55s-1.38.19-2.27.19h0Z"/>
    <path class="st6" d="M117.33,34.33c-.97,0-1.85-.21-2.62-.62-.77-.41-1.38-1.02-1.83-1.82s-.67-1.78-.67-2.93.23-2.19.7-3.01,1.09-1.45,1.88-1.89c.79-.43,1.67-.65,2.64-.65s1.85.2,2.62.61c.77.4,1.38,1,1.83,1.79s.67,1.76.67,2.93-.23,2.19-.7,3.02-1.09,1.47-1.88,1.91c-.79.44-1.67.66-2.64.66h0ZM117.39,32.8c.52,0,1.02-.12,1.49-.36s.85-.65,1.15-1.22c.29-.58.44-1.37.44-2.37,0-.94-.15-1.7-.45-2.27s-.69-.98-1.17-1.25c-.48-.26-.98-.39-1.5-.39s-1.02.11-1.49.35-.85.63-1.15,1.19c-.29.56-.44,1.35-.44,2.37,0,.93.15,1.68.45,2.27.3.59.69,1.01,1.17,1.28s.98.4,1.5.4h0Z"/>
    <path class="st6" d="M128.76,34.33c-.75,0-1.46-.2-2.15-.6-.68-.4-1.24-1-1.67-1.81-.44-.81-.65-1.83-.65-3.06,0-1.66.41-2.99,1.25-3.98.83-.99,2-1.48,3.49-1.48.55,0,1.08.09,1.59.26s.95.43,1.34.78v-6.27h1.98v15.95h-1.66l-.25-1.17h-.07c-.47.48-.93.83-1.4,1.05-.47.22-1.07.33-1.79.33h0ZM129.21,32.8c1.12,0,2.04-.49,2.74-1.46v-5.24c-.71-.79-1.54-1.19-2.49-1.19-.54,0-1.05.13-1.54.39s-.88.68-1.18,1.25-.45,1.32-.45,2.25.14,1.71.43,2.3c.28.59.65,1.02,1.1,1.29s.91.4,1.39.4h0Z"/>
    <path class="st6" d="M141.89,34.33c-1,0-1.93-.19-2.77-.57-.85-.38-1.52-.97-2.02-1.77s-.75-1.84-.75-3.11c0-1.11.21-2.07.64-2.89s1.03-1.45,1.81-1.9c.78-.45,1.69-.67,2.74-.67.9,0,1.68.2,2.35.59.67.39,1.18.93,1.55,1.62.37.69.55,1.5.55,2.43v1.03h-7.57v.09c0,1.17.32,2.07.95,2.7.64.63,1.5.94,2.6.94.57,0,1.08-.05,1.53-.13.45-.09.93-.24,1.44-.45l.4,1.46c-.44.2-.95.35-1.55.47s-1.23.18-1.89.18h0ZM138.45,27.7l5.48-.05c0-.78-.2-1.44-.6-1.99s-1.04-.82-1.92-.82c-.82,0-1.49.27-2.01.8-.52.53-.83,1.22-.95,2.06h0Z"/>
  </g>
  <path class="st3" d="M36.74,14.28s-1.54.35-1.54,3.43,2.93,3.26,2.93,3.26c0,0,1.47-1.94,5.87-1.94s9.5,3.63,9.5,3.63c0,0-5.02-3.01-9.77-3.01s-5.77,2.93-6.77,5.07c0,0-5.45-.02-5.45-5.47s4.23-5.1,4.23-5.1c0,0,.47-.02.99.13Z"/>
</svg>